<svg width="175" height="24" viewBox="0 0 175 24" fill="none" xmlns="http://www.w3.org/2000/svg">
<path fill-rule="evenodd" clip-rule="evenodd" d="M46.4094 14.1335C38.9287 16.3024 30.2918 18.4608 21.9831 18.9997C14.8815 19.4597 8.02202 18.7452 2.40743 15.7053C1.61597 15.2773 0.624854 15.5716 0.196827 16.3637C-0.231852 17.1551 0.0630656 18.1463 0.854524 18.575C6.97935 21.8902 14.4476 22.7574 22.1939 22.255C30.652 21.7069 39.4448 19.5341 47.0756 17.3339C47.961 19.1276 49.7944 20.7999 53.0242 22.0337C57.985 23.9292 64.7584 23.9057 71.8939 22.8376C82.2429 21.2892 93.3755 17.5969 100.533 14.9733C100.827 14.8662 101.264 14.696 101.799 14.4715C101.962 14.8317 102.145 15.1866 102.347 15.5351C104.102 18.5717 107.208 21.027 110.373 21.9039C130.443 27.4643 153.867 20.8019 172.939 15.3797C173.8 15.1338 174.303 14.2308 174.061 13.3649C173.813 12.4991 172.913 11.996 172.045 12.242C153.508 17.5127 130.75 24.1628 111.24 18.7596C108.839 18.0941 106.503 16.2071 105.172 13.9025C105.022 13.6455 104.892 13.3825 104.768 13.1157C107.397 11.8127 110.49 9.99615 112.154 8.05176C113.863 6.05844 114.288 3.9307 112.8 1.92106C111.521 0.203083 109.583 0.0569249 107.567 0.94756C105.394 1.90149 103.156 4.13163 102.432 5.17821C101.075 7.13304 100.644 9.25362 100.892 11.3213C100.253 11.5915 99.7333 11.7924 99.413 11.9099C92.4118 14.4754 81.5304 18.0967 71.4111 19.6111C64.9 20.5859 58.7151 20.7157 54.1882 18.9867C52.2576 18.2487 50.9819 17.3875 50.2896 16.3879C51.6559 15.9794 52.9733 15.5775 54.232 15.1938C56.7212 14.435 61.9038 13.179 65.6066 10.9403C68.5513 9.16033 70.5479 6.73897 70.4317 3.70364C70.3724 2.14421 69.47 1.10348 68.0339 0.520167C65.8878 -0.350894 62.1766 0.0705989 60.7946 0.364215C56.6031 1.25289 51.0087 4.93159 48.2409 9.0768C47.1362 10.7308 46.4792 12.4612 46.4094 14.1335ZM49.8525 13.1143C51.0368 12.7581 52.1812 12.4083 53.2806 12.073C55.6041 11.3644 60.4612 10.2388 63.9187 8.1483C65.7495 7.04169 67.2444 5.71587 67.1719 3.82825C67.1661 3.68144 67.0206 3.63969 66.892 3.57966C66.693 3.48766 66.4653 3.42436 66.2226 3.37477C64.5803 3.03939 62.3742 3.36366 61.4712 3.55549C57.9543 4.30127 53.2761 7.41035 50.9539 10.8887C50.4632 11.6234 50.0724 12.3718 49.8525 13.1143ZM104.115 9.81932C105.649 9.03047 107.254 8.07653 108.52 7.03844C109.192 6.48709 109.759 5.92011 110.118 5.33157C110.418 4.84482 110.536 4.34629 110.177 3.86476C110.033 3.66967 109.818 3.66578 109.596 3.70232C109.361 3.74147 109.12 3.82497 108.878 3.93262C107.286 4.63339 105.642 6.27047 105.114 7.03844C104.494 7.92907 104.187 8.87127 104.115 9.81932Z" fill="#21538B"/>
</svg>
