<svg width="60" height="40" viewBox="0 0 60 40" fill="none" xmlns="http://www.w3.org/2000/svg">
<path fill-rule="evenodd" clip-rule="evenodd" d="M29.3599 23.5C27.8155 27.8695 23.6483 31 18.75 31L18.75 38.5C29.1053 38.5 37.5 30.1053 37.5 19.75L37.5 16L18.75 16L18.75 23.5L29.3599 23.5Z" fill="black"/>
<path fill-rule="evenodd" clip-rule="evenodd" d="M40.5 31C46.7132 31 51.75 25.9632 51.75 19.75L51.75 0.999999L59.25 1L59.25 19.75C59.25 30.1053 50.8553 38.5 40.5 38.5L40.5 31Z" fill="black"/>
<path d="M32.25 4.75C32.25 6.82107 30.5711 8.5 28.5 8.5C26.4289 8.5 24.75 6.82107 24.75 4.75C24.75 2.67893 26.4289 1 28.5 1C30.5711 1 32.25 2.67893 32.25 4.75Z" fill="black"/>
<path d="M45.75 4.75C45.75 6.82107 44.0711 8.5 42 8.5C39.9289 8.5 38.25 6.82107 38.25 4.75C38.25 2.67893 39.9289 1 42 1C44.0711 1 45.75 2.67893 45.75 4.75Z" fill="black"/>
<path fill-rule="evenodd" clip-rule="evenodd" d="M18.75 8.5C12.5368 8.5 7.5 13.5368 7.5 19.75H0C0 9.39466 8.39466 1 18.75 1V8.5Z" fill="black"/>
</svg>
